<svg width="550" height="550" viewBox="0 0 550 550" fill="none" xmlns="http://www.w3.org/2000/svg">
<path d="M857.581 -3.05176e-05C857.581 169.872 719.872 307.581 550 307.581C380.128 307.581 242.419 169.872 242.419 -3.05176e-05C242.419 -169.872 380.128 -307.581 550 -307.581C719.872 -307.581 857.581 -169.872 857.581 -3.05176e-05ZM370.573 -3.05176e-05C370.573 99.0948 450.905 179.427 550 179.427C649.095 179.427 729.427 99.0948 729.427 -3.05176e-05C729.427 -99.0949 649.095 -179.427 550 -179.427C450.905 -179.427 370.573 -99.0949 370.573 -3.05176e-05Z" fill="#0F304F"/>
<path d="M1100 0C1100 303.757 853.757 550 550 550C246.243 550 0 303.757 0 0C0 -303.757 246.243 -550 550 -550C853.757 -550 1100 -303.757 1100 0ZM128.594 0C128.594 232.736 317.264 421.406 550 421.406C782.736 421.406 971.406 232.736 971.406 0C971.406 -232.736 782.736 -421.406 550 -421.406C317.264 -421.406 128.594 -232.736 128.594 0Z" fill="#F4C93C"/>
</svg>
