<svg width="42" height="56" fill="none" xmlns="http://www.w3.org/2000/svg"><path d="M41.658 12.008L29.991.342A1.166 1.166 0 0029.167 0h-24.5A4.671 4.671 0 000 4.667v46.666A4.671 4.671 0 004.667 56h32.666A4.671 4.671 0 0042 51.333v-38.5c0-.31-.123-.606-.342-.825zM30.333 3.983l7.684 7.684h-5.35a2.336 2.336 0 01-2.334-2.334v-5.35zm9.334 47.35a2.336 2.336 0 01-2.334 2.334H4.667a2.336 2.336 0 01-2.334-2.334V4.667a2.336 2.336 0 012.334-2.334H28v7A4.671 4.671 0 0032.667 14h7v37.333z" fill="#EB5757"/><path d="M26.948 34.25c-1.08-.85-2.106-1.725-2.79-2.408a40.182 40.182 0 01-2.368-2.57c1.073-3.317 1.543-5.027 1.543-5.939 0-3.872-1.399-4.666-3.5-4.666-1.596 0-3.5.829-3.5 4.778 0 1.74.954 3.854 2.844 6.31-.462 1.412-1.006 3.04-1.616 4.876-.294.88-.613 1.696-.95 2.45a19.33 19.33 0 00-.8.375c-.927.464-1.807.881-2.624 1.268C9.46 40.489 7 41.654 7 43.96c0 1.672 1.817 2.708 3.5 2.708 2.17 0 5.445-2.898 7.837-7.779 2.484-.98 5.572-1.705 8.009-2.16 1.953 1.502 4.11 2.939 5.154 2.939 2.893 0 3.5-1.673 3.5-3.075 0-2.759-3.151-2.759-4.667-2.759-.47 0-1.732.14-3.385.416zM10.5 44.332c-.667 0-1.118-.314-1.167-.374 0-.828 2.467-1.997 4.853-3.127l.461-.217c-1.752 2.54-3.485 3.718-4.147 3.718zm8.167-20.888c0-2.445.758-2.445 1.166-2.445.825 0 1.167 0 1.167 2.333 0 .493-.328 1.723-.928 3.644-.917-1.41-1.405-2.62-1.405-3.532zm.894 12.54c.073-.203.144-.408.212-.616.433-1.299.823-2.465 1.17-3.516a47.084 47.084 0 001.566 1.639c.218.218.76.71 1.483 1.327a50.346 50.346 0 00-4.43 1.165zm13.106.607c0 .524 0 .741-1.083.748-.317-.068-1.052-.501-1.96-1.119.33-.036.573-.054.71-.054 1.723 0 2.212.168 2.333.425z" fill="#EB5757"/></svg>