<svg width="42" height="56" fill="none" xmlns="http://www.w3.org/2000/svg"><path d="M41.658 12.008L29.991.342A1.166 1.166 0 0029.167 0h-24.5A4.671 4.671 0 000 4.667v46.666A4.671 4.671 0 004.667 56h32.666A4.671 4.671 0 0042 51.333v-38.5c0-.31-.123-.606-.342-.825zM30.333 3.983l7.684 7.684h-5.35a2.336 2.336 0 01-2.334-2.334v-5.35zm9.334 47.35a2.336 2.336 0 01-2.334 2.334H4.667a2.336 2.336 0 01-2.334-2.334V4.667a2.336 2.336 0 012.334-2.334H28v7A4.671 4.671 0 0032.667 14h7v37.333z" fill="#1B5E99"/><path d="M24.987 36a.998.998 0 01-.958-.723L20.994 24.66l-3.035 10.618a1.038 1.038 0 01-1.919 0l-3.993-13.976a.998.998 0 111.919-.549l3.035 10.616 3.035-10.618a1.038 1.038 0 011.918 0l3.033 10.618 3.035-10.616a.986.986 0 011.234-.685c.53.152.836.704.685 1.234l-3.993 13.976a.998.998 0 01-.96.723z" fill="#1B5E99"/></svg>