<svg width="42" height="56" viewBox="0 0 42 56" fill="none" xmlns="http://www.w3.org/2000/svg">
<path d="M41.6582 12.0085L29.9915 0.341797C29.7728 0.123047 29.4766 0 29.1666 0H4.66659C2.09289 0 0 2.09289 0 4.6667V51.3334C0 53.9071 2.09289 56 4.6667 56H37.3334C39.9071 56 42 53.9071 42 51.3333V12.8333C42 12.5234 41.877 12.2273 41.6582 12.0085ZM30.3333 3.98311L38.0169 11.6667H32.6666C31.3803 11.6667 30.3333 10.6197 30.3333 9.33341V3.98311ZM39.6667 51.3333C39.6667 52.6195 38.6197 53.6666 37.3334 53.6666H4.6667C3.38045 53.6666 2.33341 52.6195 2.33341 51.3333V4.6667C2.33341 3.38045 3.38045 2.33341 4.6667 2.33341H28V9.33341C28 11.9071 30.0929 14 32.6667 14H39.6667V51.3333Z" fill="#EB5757"/>
<path d="M26.9484 34.2492C25.8683 33.3992 24.8418 32.5254 24.1582 31.8418C23.2695 30.9532 22.4777 30.0918 21.7896 29.2715C22.8629 25.9549 23.3334 24.2449 23.3334 23.3333C23.3334 19.4608 21.9343 18.6666 19.8334 18.6666C18.2372 18.6666 16.3334 19.496 16.3334 23.445C16.3334 25.1859 17.287 27.2994 19.1772 29.7557C18.7146 31.1673 18.1711 32.7955 17.5605 34.6309C17.2665 35.5116 16.9475 36.3273 16.6102 37.0815C16.3357 37.2035 16.069 37.3276 15.8116 37.4564C14.8842 37.9201 14.0035 38.3371 13.1866 38.7245C9.46094 40.4881 7 41.6548 7 43.9585C7 45.6311 8.81727 46.6666 10.5 46.6666C12.6692 46.6666 15.9448 43.7693 18.3374 38.8884C20.8211 37.9086 23.9087 37.1828 26.3457 36.7283C28.2985 38.2299 30.4552 39.6666 31.5 39.6666C34.3927 39.6666 35 37.9941 35 36.5915C35 33.8332 31.8486 33.8332 30.3333 33.8332C29.8628 33.8333 28.6005 33.9723 26.9484 34.2492ZM10.5 44.3333C9.83347 44.3333 9.3823 44.0189 9.3333 43.9585C9.3333 43.1313 11.7999 41.9624 14.1857 40.8322C14.3372 40.7605 14.4911 40.6886 14.6472 40.6146C12.8949 43.1554 11.1619 44.3333 10.5 44.3333ZM18.6667 23.445C18.6667 21 19.4255 21 19.8334 21C20.6583 21 21.0001 21 21.0001 23.3333C21.0001 23.8255 20.672 25.056 20.0715 26.9769C19.1554 25.5664 18.6667 24.3576 18.6667 23.445ZM19.5611 35.9844C19.634 35.7816 19.7047 35.5765 19.773 35.3692C20.2059 34.0703 20.5956 32.9036 20.9431 31.8532C21.4273 32.3864 21.9492 32.9322 22.5086 33.4915C22.7274 33.7103 23.2696 34.2025 23.9921 34.8188C22.554 35.1322 21.024 35.5207 19.5611 35.9844ZM32.6667 36.5917C32.6667 37.1158 32.6667 37.3333 31.5843 37.3402C31.2665 37.2719 30.5316 36.839 29.6247 36.2214C29.9539 36.185 30.1966 36.1667 30.3333 36.1667C32.0572 36.1667 32.546 36.3353 32.6667 36.5917Z" fill="#EB5757"/>
</svg>
