<svg width="42" height="56" viewBox="0 0 42 56" fill="none" xmlns="http://www.w3.org/2000/svg">
<path d="M41.6582 12.0085L29.9915 0.341797C29.7728 0.123047 29.4766 0 29.1666 0H4.66659C2.09289 0 0 2.09289 0 4.6667V51.3334C0 53.9071 2.09289 56 4.6667 56H37.3334C39.9071 56 42 53.9071 42 51.3333V12.8333C42 12.5234 41.877 12.2273 41.6582 12.0085ZM30.3333 3.98311L38.0169 11.6667H32.6666C31.3803 11.6667 30.3333 10.6197 30.3333 9.33341V3.98311ZM39.6667 51.3333C39.6667 52.6195 38.6197 53.6666 37.3334 53.6666H4.6667C3.38045 53.6666 2.33341 52.6195 2.33341 51.3333V4.6667C2.33341 3.38045 3.38045 2.33341 4.6667 2.33341H28V9.33341C28 11.9071 30.0929 14 32.6667 14H39.6667V51.3333Z" fill="#1B5E99"/>
<path d="M24.9872 36C24.5423 35.9995 24.1516 35.7047 24.0288 35.2772L20.994 24.6593L17.9591 35.2772C17.7399 35.807 17.1327 36.0589 16.6028 35.8397C16.3481 35.7343 16.1457 35.532 16.0403 35.2772L12.0472 21.3012C11.8801 20.7757 12.1706 20.2144 12.696 20.0472C13.2214 19.8801 13.7828 20.1706 13.9499 20.696C13.9558 20.7145 13.9612 20.7333 13.966 20.7521L17.0008 31.3679L20.0356 20.7501C20.2548 20.2203 20.862 19.9684 21.3919 20.1876C21.6467 20.293 21.849 20.4954 21.9544 20.7501L24.9872 31.368L28.022 20.7522C28.1657 20.2267 28.7081 19.9172 29.2335 20.0609C29.241 20.063 29.2484 20.0651 29.2559 20.0673C29.7856 20.2191 30.0921 20.7713 29.9407 21.3012L25.9475 35.2772C25.8245 35.7055 25.4326 36.0004 24.9872 36Z" fill="#1B5E99"/>
</svg>
